<svg width="171" height="173" viewBox="0 0 171 173" fill="none" xmlns="http://www.w3.org/2000/svg">
<rect width="1440" height="1900" transform="translate(-480 -1496)" fill="white"/>
<circle cx="85" cy="87" r="85" fill="#F1BA2C"/>
<path d="M79.77 82.19C80.28 79.46 80.28 77.24 80.28 75.59V73.97H61.14V77.06H76.32C76.29 78.41 76.2 79.94 75.84 81.86L79.77 82.19ZM65.07 95.51H80.31V88.07H61.08V91.13H76.35V92.81H61.11V100.37H81V97.31H65.07V95.51ZM71.52 83.33V79.34H67.56V83.33H58.35V86.42H83.22V83.33H71.52ZM108.238 85.7H92.7577V78.44H108.028V75.23H88.7977V88.85H108.238V85.7ZM85.8877 94.04V97.28H110.908V94.04H85.8877Z" fill="black"/>
<line x1="85.5" y1="-78" x2="85.5" y2="3" stroke="#828282" stroke-dasharray="10 10"/>
</svg>
