<svg width="77" height="30" viewBox="0 0 77 30" fill="none" xmlns="http://www.w3.org/2000/svg">
<rect width="1063" height="526" transform="translate(-85 -52)" fill="white"/>
<path d="M77.5 1.5709L80.506 10.5239L80.6204 10.8647H80.98H90.6609L82.8431 16.3615L82.538 16.576L82.6567 16.9297L85.6516 25.8497L77.7876 20.3205L77.5 20.1183L77.2124 20.3205L69.3484 25.8497L72.3433 16.9297L72.462 16.576L72.1569 16.3615L64.3391 10.8647H74.02H74.3796L74.494 10.5239L77.5 1.5709Z" fill="#FFE600" stroke="#FFE600"/>
<path d="M46 1.61804L48.8922 10.5193L49.0044 10.8647H49.3677H58.727L51.1552 16.366L50.8613 16.5795L50.9735 16.925L53.8657 25.8262L46.2939 20.325L46 20.1115L45.7061 20.325L38.1343 25.8262L41.0265 16.925L41.1387 16.5795L40.8448 16.366L33.273 10.8647H42.6323H42.9956L43.1078 10.5193L46 1.61804Z" fill="#FFE600" stroke="#FFE600"/>
<path d="M15 1.61804L17.8922 10.5193L18.0044 10.8647H18.3677H27.727L20.1552 16.366L19.8613 16.5795L19.9735 16.925L22.8657 25.8262L15.2939 20.325L15 20.1115L14.7061 20.325L7.13428 25.8262L10.0265 16.925L10.1387 16.5795L9.84482 16.366L2.27299 10.8647H11.6323H11.9956L12.1078 10.5193L15 1.61804Z" fill="#FFE600" stroke="#FFE600"/>
</svg>
