<svg width="46" height="30" viewBox="0 0 46 30" fill="none" xmlns="http://www.w3.org/2000/svg">
<rect width="1063" height="526" transform="translate(-85 -52)" fill="white"/>
<path d="M46 1.61804L48.8922 10.5193L49.0044 10.8647H49.3677H58.727L51.1552 16.366L50.8613 16.5795L50.9735 16.925L53.8657 25.8262L46.2939 20.325L46 20.1115L45.7061 20.325L38.1343 25.8262L41.0265 16.925L41.1387 16.5795L40.8448 16.366L33.273 10.8647H42.6323H42.9956L43.1078 10.5193L46 1.61804Z" fill="#FFE600" stroke="#FFE600"/>
<path d="M15 1.61804L17.8922 10.5193L18.0044 10.8647H18.3677H27.727L20.1552 16.366L19.8613 16.5795L19.9735 16.925L22.8657 25.8262L15.2939 20.325L15 20.1115L14.7061 20.325L7.13428 25.8262L10.0265 16.925L10.1387 16.5795L9.84482 16.366L2.27299 10.8647H11.6323H11.9956L12.1078 10.5193L15 1.61804Z" fill="#FFE600" stroke="#FFE600"/>
</svg>
