<svg width="1440" height="700" viewBox="0 0 1440 700" fill="none" xmlns="http://www.w3.org/2000/svg">
<rect width="1440" height="700" fill="#C2DDE6"/>
<rect width="1440" height="700" fill="url(#paint0_linear)"/>
<path d="M474.238 364H470.605V339.918L463.32 342.594V339.312L473.672 335.426H474.238V364ZM485.273 362.105C485.273 361.48 485.456 360.96 485.82 360.543C486.198 360.126 486.758 359.918 487.5 359.918C488.242 359.918 488.802 360.126 489.18 360.543C489.57 360.96 489.766 361.48 489.766 362.105C489.766 362.704 489.57 363.206 489.18 363.609C488.802 364.013 488.242 364.215 487.5 364.215C486.758 364.215 486.198 364.013 485.82 363.609C485.456 363.206 485.273 362.704 485.273 362.105ZM502.568 355.8H499.288V366.16H523.968V363.48H502.568V355.8ZM502.088 339.32C502.088 336.48 505.688 334.8 511.368 334.8C516.968 334.8 520.568 336.48 520.568 339.32C520.568 342.16 516.968 343.8 511.368 343.8C505.688 343.8 502.088 342.16 502.088 339.32ZM513.008 350.16V346.4C519.688 346.04 523.928 343.44 523.928 339.32C523.928 334.84 519.008 332.16 511.368 332.16C503.648 332.16 498.728 334.84 498.728 339.32C498.728 343.48 502.968 346.04 509.728 346.4V350.16H495.128V352.84H527.528V350.16H513.008ZM536.605 347.28H549.525V334.4H533.285V337.08H546.285V344.6H533.405V358.32H536.245C543.085 358.32 547.885 358.04 553.485 357.04L553.125 354.32C547.765 355.36 543.125 355.6 536.605 355.6V347.28ZM565.445 345.32H559.565V331.04H556.285V367H559.565V348.08H565.445V345.32ZM598.162 331.12H594.882V357.32H598.162V331.12ZM572.762 342.4C572.762 338.92 575.402 336.44 578.882 336.44C582.442 336.44 585.082 338.92 585.082 342.4C585.082 345.96 582.442 348.44 578.882 348.44C575.402 348.44 572.762 345.96 572.762 342.4ZM588.282 342.4C588.282 337.24 584.242 333.6 578.882 333.6C573.562 333.6 569.562 337.24 569.562 342.4C569.562 347.6 573.562 351.28 578.882 351.28C584.242 351.28 588.282 347.6 588.282 342.4ZM578.362 363.48V354.64H575.082V366.16H599.242V363.48H578.362ZM647.92 348.84H642.6C643.6 343.68 643.6 339.88 643.6 336.52V333.4H619.52V336.04H640.4V336.52C640.4 339.88 640.4 343.68 639.28 348.84H615.48V351.52H629.96V367H633.28V351.52H647.92V348.84ZM656.597 337.84H664.117V354.72H656.597V337.84ZM653.517 357.32H667.157V335.24H653.517V357.32ZM679.597 331.08V345.28H674.757V331.88H671.677V365.16H674.757V347.96H679.597V366.92H682.717V331.08H679.597ZM701.754 334.2H698.514V340.64C698.514 347.44 694.154 354.32 688.874 356.84L690.874 359.52C695.074 357.36 698.514 352.88 700.154 347.48C701.874 352.6 705.314 356.84 709.394 358.84L711.354 356.2C706.034 353.8 701.754 347.2 701.754 340.64V334.2ZM715.114 331.08V367.04H718.394V331.08H715.114ZM748.153 346.72H740.433V336.2H748.153V346.72ZM751.193 342.56H756.073V351.48H759.153V331.84H756.073V339.88H751.193V333.68H737.353V349.2H751.193V342.56ZM745.673 356.28H762.833V363.84H745.673V356.28ZM742.473 366.48H766.033V353.68H742.473V366.48ZM762.913 331.12V351.88H766.033V331.12H762.913ZM787.23 355.28H777.23V345.84H787.23V355.28ZM798.83 331.08V344.4H790.43V333.92H787.23V343.24H777.23V333.92H773.99V357.96H790.43V347.04H798.83V367.04H802.11V331.08H798.83ZM831.787 341.52C826.667 340.44 823.107 337.44 823.107 333.76V331.96H819.707V333.76C819.707 337.6 816.187 340.84 810.987 342.04L812.427 344.56C816.707 343.48 819.947 341.08 821.427 337.92C822.987 340.88 826.227 343.08 830.347 344.04L831.787 341.52ZM820.107 354.52H823.387V349.16C826.627 349 829.907 348.68 833.107 348.16L832.867 345.76C825.027 346.8 816.147 346.8 809.427 346.8L809.827 349.52C812.907 349.52 816.467 349.52 820.107 349.36V354.52ZM835.307 363.84H818.267V359.88H835.307V363.84ZM835.307 357.32H818.267V353.48H814.987V366.48H838.547V353.48H835.307V357.32ZM835.267 331.12V351.72H838.547V331.12H835.267ZM877.225 348.6C872.025 346.76 868.505 342.24 868.505 337.64V336.2H876.385V333.52H857.225V336.2H865.225V337.64C865.225 342.72 861.505 347.52 856.185 349.4L857.905 352C862.105 350.44 865.385 347.16 866.905 343.04C868.505 346.76 871.585 349.72 875.585 351.16L877.225 348.6ZM861.625 357.16H882.305V367H885.625V354.52H861.625V357.16ZM882.305 331.08V340.44H875.305V343.12H882.305V352.56H885.625V331.08H882.305ZM914.662 346.24C908.982 347.16 904.302 347.36 897.942 347.36V342.52H910.942V332.84H894.622V335.48H907.702V340H894.742V350.04H897.622C904.262 350.04 909.142 349.84 915.022 348.88L914.662 346.24ZM919.062 363.8H902.302V359.4H919.062V363.8ZM919.062 356.84H902.302V352.6H899.062V366.48H922.302V352.6H919.062V356.84ZM919.022 331.12V350.8H922.302V331.12H919.022ZM951.699 364H948.066V339.918L940.781 342.594V339.312L951.133 335.426H951.699V364ZM961.973 341.031C961.973 339.326 962.513 337.919 963.594 336.812C964.688 335.706 966.087 335.152 967.793 335.152C969.525 335.152 970.924 335.712 971.992 336.832C973.073 337.939 973.613 339.378 973.613 341.148V342.535C973.613 344.254 973.066 345.66 971.973 346.754C970.892 347.835 969.512 348.375 967.832 348.375C966.139 348.375 964.74 347.835 963.633 346.754C962.526 345.66 961.973 344.208 961.973 342.398V341.031ZM964.668 342.535C964.668 343.551 964.954 344.391 965.527 345.055C966.1 345.706 966.868 346.031 967.832 346.031C968.757 346.031 969.499 345.712 970.059 345.074C970.632 344.436 970.918 343.564 970.918 342.457V341.031C970.918 340.016 970.638 339.176 970.078 338.512C969.518 337.848 968.757 337.516 967.793 337.516C966.829 337.516 966.068 337.848 965.508 338.512C964.948 339.176 964.668 340.042 964.668 341.109V342.535ZM975.82 357.027C975.82 355.322 976.361 353.922 977.441 352.828C978.535 351.721 979.935 351.168 981.641 351.168C983.346 351.168 984.746 351.715 985.84 352.809C986.934 353.902 987.48 355.354 987.48 357.164V358.551C987.48 360.257 986.934 361.663 985.84 362.77C984.759 363.863 983.372 364.41 981.68 364.41C979.987 364.41 978.587 363.87 977.48 362.789C976.374 361.695 975.82 360.243 975.82 358.434V357.027ZM978.516 358.551C978.516 359.579 978.802 360.426 979.375 361.09C979.948 361.741 980.716 362.066 981.68 362.066C982.617 362.066 983.366 361.747 983.926 361.109C984.486 360.458 984.766 359.579 984.766 358.473V357.027C984.766 355.999 984.479 355.159 983.906 354.508C983.346 353.857 982.591 353.531 981.641 353.531C980.716 353.531 979.961 353.857 979.375 354.508C978.802 355.146 978.516 356.012 978.516 357.105V358.551ZM968.652 361.852L966.602 360.562L980.488 338.336L982.539 339.625L968.652 361.852ZM1012.23 348.746H1020.16V352.164H1012.23V361.148H1008.59V352.164H1000.66V348.746H1008.59V340.445H1012.23V348.746ZM1046 364H1042.36V339.918L1035.08 342.594V339.312L1045.43 335.426H1046V364ZM1056.27 341.031C1056.27 339.326 1056.81 337.919 1057.89 336.812C1058.98 335.706 1060.38 335.152 1062.09 335.152C1063.82 335.152 1065.22 335.712 1066.29 336.832C1067.37 337.939 1067.91 339.378 1067.91 341.148V342.535C1067.91 344.254 1067.36 345.66 1066.27 346.754C1065.19 347.835 1063.81 348.375 1062.13 348.375C1060.44 348.375 1059.04 347.835 1057.93 346.754C1056.82 345.66 1056.27 344.208 1056.27 342.398V341.031ZM1058.96 342.535C1058.96 343.551 1059.25 344.391 1059.82 345.055C1060.4 345.706 1061.17 346.031 1062.13 346.031C1063.05 346.031 1063.8 345.712 1064.36 345.074C1064.93 344.436 1065.21 343.564 1065.21 342.457V341.031C1065.21 340.016 1064.93 339.176 1064.38 338.512C1063.82 337.848 1063.05 337.516 1062.09 337.516C1061.13 337.516 1060.36 337.848 1059.8 338.512C1059.24 339.176 1058.96 340.042 1058.96 341.109V342.535ZM1070.12 357.027C1070.12 355.322 1070.66 353.922 1071.74 352.828C1072.83 351.721 1074.23 351.168 1075.94 351.168C1077.64 351.168 1079.04 351.715 1080.14 352.809C1081.23 353.902 1081.78 355.354 1081.78 357.164V358.551C1081.78 360.257 1081.23 361.663 1080.14 362.77C1079.06 363.863 1077.67 364.41 1075.98 364.41C1074.28 364.41 1072.88 363.87 1071.78 362.789C1070.67 361.695 1070.12 360.243 1070.12 358.434V357.027ZM1072.81 358.551C1072.81 359.579 1073.1 360.426 1073.67 361.09C1074.24 361.741 1075.01 362.066 1075.98 362.066C1076.91 362.066 1077.66 361.747 1078.22 361.109C1078.78 360.458 1079.06 359.579 1079.06 358.473V357.027C1079.06 355.999 1078.78 355.159 1078.2 354.508C1077.64 353.857 1076.89 353.531 1075.94 353.531C1075.01 353.531 1074.26 353.857 1073.67 354.508C1073.1 355.146 1072.81 356.012 1072.81 357.105V358.551ZM1062.95 361.852L1060.9 360.562L1074.79 338.336L1076.84 339.625L1062.95 361.852ZM1112.7 348.102H1096.41V344.957H1112.7V348.102ZM1112.7 356.207H1096.41V353.082H1112.7V356.207ZM1130.35 347C1136.27 346.36 1141.47 344.24 1143.67 340.72C1145.83 344.24 1151.07 346.36 1156.99 347L1157.99 344.44C1151.23 343.84 1145.75 341.12 1145.43 337.2H1156.55V334.6H1145.31V330.96H1142.03V334.6H1130.79V337.2H1141.87C1141.55 341.12 1136.03 343.84 1129.35 344.44L1130.35 347ZM1143.63 364.44C1137.95 364.44 1134.67 363.2 1134.67 360.96C1134.67 358.72 1137.95 357.44 1143.63 357.44C1149.31 357.44 1152.59 358.72 1152.59 360.96C1152.59 363.2 1149.31 364.44 1143.63 364.44ZM1143.63 355C1135.91 355 1131.35 357.08 1131.35 360.96C1131.35 364.84 1135.91 366.92 1143.63 366.92C1151.35 366.92 1155.91 364.84 1155.91 360.96C1155.91 357.08 1151.35 355 1143.63 355ZM1145.31 349.68V345.24H1142.03V349.68H1127.43V352.32H1159.87V349.68H1145.31ZM1193.03 364H1174.39V361.402L1184.24 350.465C1185.7 348.811 1186.7 347.47 1187.25 346.441C1187.81 345.4 1188.09 344.326 1188.09 343.219C1188.09 341.734 1187.64 340.517 1186.74 339.566C1185.84 338.616 1184.64 338.141 1183.14 338.141C1181.35 338.141 1179.95 338.655 1178.95 339.684C1177.96 340.699 1177.46 342.118 1177.46 343.941H1173.85C1173.85 341.324 1174.69 339.208 1176.37 337.594C1178.06 335.979 1180.32 335.172 1183.14 335.172C1185.79 335.172 1187.88 335.868 1189.41 337.262C1190.95 338.642 1191.72 340.484 1191.72 342.789C1191.72 345.589 1189.93 348.922 1186.37 352.789L1178.75 361.051H1193.03V364ZM1196.54 341.031C1196.54 339.326 1197.08 337.919 1198.16 336.812C1199.26 335.706 1200.66 335.152 1202.36 335.152C1204.1 335.152 1205.49 335.712 1206.56 336.832C1207.64 337.939 1208.18 339.378 1208.18 341.148V342.535C1208.18 344.254 1207.64 345.66 1206.54 346.754C1205.46 347.835 1204.08 348.375 1202.4 348.375C1200.71 348.375 1199.31 347.835 1198.2 346.754C1197.1 345.66 1196.54 344.208 1196.54 342.398V341.031ZM1199.24 342.535C1199.24 343.551 1199.52 344.391 1200.1 345.055C1200.67 345.706 1201.44 346.031 1202.4 346.031C1203.33 346.031 1204.07 345.712 1204.63 345.074C1205.2 344.436 1205.49 343.564 1205.49 342.457V341.031C1205.49 340.016 1205.21 339.176 1204.65 338.512C1204.09 337.848 1203.33 337.516 1202.36 337.516C1201.4 337.516 1200.64 337.848 1200.08 338.512C1199.52 339.176 1199.24 340.042 1199.24 341.109V342.535ZM1210.39 357.027C1210.39 355.322 1210.93 353.922 1212.01 352.828C1213.11 351.721 1214.51 351.168 1216.21 351.168C1217.92 351.168 1219.32 351.715 1220.41 352.809C1221.5 353.902 1222.05 355.354 1222.05 357.164V358.551C1222.05 360.257 1221.5 361.663 1220.41 362.77C1219.33 363.863 1217.94 364.41 1216.25 364.41C1214.56 364.41 1213.16 363.87 1212.05 362.789C1210.94 361.695 1210.39 360.243 1210.39 358.434V357.027ZM1213.09 358.551C1213.09 359.579 1213.37 360.426 1213.95 361.09C1214.52 361.741 1215.29 362.066 1216.25 362.066C1217.19 362.066 1217.94 361.747 1218.5 361.109C1219.06 360.458 1219.34 359.579 1219.34 358.473V357.027C1219.34 355.999 1219.05 355.159 1218.48 354.508C1217.92 353.857 1217.16 353.531 1216.21 353.531C1215.29 353.531 1214.53 353.857 1213.95 354.508C1213.37 355.146 1213.09 356.012 1213.09 357.105V358.551ZM1203.22 361.852L1201.17 360.562L1215.06 338.336L1217.11 339.625L1203.22 361.852ZM1256.99 348.6C1251.79 346.76 1248.27 342.24 1248.27 337.64V336.2H1256.15V333.52H1236.99V336.2H1244.99V337.64C1244.99 342.72 1241.27 347.52 1235.95 349.4L1237.67 352C1241.87 350.44 1245.15 347.16 1246.67 343.04C1248.27 346.76 1251.35 349.72 1255.35 351.16L1256.99 348.6ZM1241.39 357.16H1262.07V367H1265.39V354.52H1241.39V357.16ZM1262.07 331.08V340.44H1255.07V343.12H1262.07V352.56H1265.39V331.08H1262.07ZM1294.43 346.24C1288.75 347.16 1284.07 347.36 1277.71 347.36V342.52H1290.71V332.84H1274.39V335.48H1287.47V340H1274.51V350.04H1277.39C1284.03 350.04 1288.91 349.84 1294.79 348.88L1294.43 346.24ZM1298.83 363.8H1282.07V359.4H1298.83V363.8ZM1298.83 356.84H1282.07V352.6H1278.83V366.48H1302.07V352.6H1298.83V356.84ZM1298.79 331.12V350.8H1302.07V331.12H1298.79ZM502.285 409.457C502.285 406.514 502.676 403.689 503.457 400.98C504.251 398.272 505.43 395.811 506.992 393.598C508.555 391.384 510.176 389.822 511.855 388.91L512.598 391.293C510.697 392.751 509.134 394.978 507.91 397.973C506.699 400.967 506.035 404.32 505.918 408.031L505.898 409.691C505.898 414.717 506.816 419.079 508.652 422.777C509.759 424.991 511.074 426.723 512.598 427.973L511.855 430.18C510.124 429.216 508.47 427.602 506.895 425.336C503.822 420.909 502.285 415.616 502.285 409.457ZM521.799 399.84C521.799 395.72 525.999 393.04 531.719 393.04C537.439 393.04 541.599 395.72 541.599 399.84C541.599 403.96 537.439 406.64 531.719 406.64C525.999 406.64 521.799 403.96 521.799 399.84ZM533.359 416.64V409.16C540.039 408.68 544.719 405.12 544.719 399.84C544.719 394.12 539.279 390.44 531.719 390.44C524.119 390.44 518.639 394.12 518.639 399.84C518.639 405.12 523.359 408.68 530.039 409.16V416.64H515.439V419.36H548.039V416.64H533.359ZM572.916 400.72H563.996V392.56H572.916V400.72ZM560.716 400.72H555.396V403.36H581.476V400.72H576.196V392.56H581.596V389.92H555.276V392.56H560.716V400.72ZM559.716 413.2H556.436V423.16H581.116V420.48H559.716V413.2ZM552.236 407.24V409.88H584.676V407.24H552.236ZM601.793 391.2H598.553V397.64C598.553 404.44 594.193 411.32 588.913 413.84L590.913 416.52C595.113 414.36 598.553 409.88 600.193 404.48C601.913 409.6 605.353 413.84 609.433 415.84L611.393 413.2C606.073 410.8 601.793 404.2 601.793 397.64V391.2ZM615.153 388.08V424.04H618.433V388.08H615.153ZM647.03 405.36C641.83 403.52 638.31 399.04 638.31 394.36V393.04H646.19V390.36H627.03V393.04H635.03V394.4C635.03 399.48 631.31 404.24 625.99 406.16L627.71 408.72C631.91 407.2 635.19 403.92 636.75 399.8C638.31 403.48 641.39 406.48 645.39 407.92L647.03 405.36ZM635.31 413.44H652.23V420.84H635.31V413.44ZM632.11 423.48H655.43V410.84H632.11V423.48ZM652.11 388.08V397.08H645.03V399.8H652.11V409.08H655.43V388.08H652.11ZM674.492 406.742L675.938 392.562H690.508V395.902H679.004L678.145 403.656C679.538 402.836 681.12 402.426 682.891 402.426C685.482 402.426 687.539 403.285 689.062 405.004C690.586 406.71 691.348 409.021 691.348 411.938C691.348 414.867 690.553 417.178 688.965 418.871C687.389 420.551 685.182 421.391 682.344 421.391C679.831 421.391 677.78 420.694 676.191 419.301C674.603 417.908 673.698 415.98 673.477 413.52H676.895C677.116 415.147 677.695 416.378 678.633 417.211C679.57 418.031 680.807 418.441 682.344 418.441C684.023 418.441 685.339 417.868 686.289 416.723C687.253 415.577 687.734 413.995 687.734 411.977C687.734 410.076 687.214 408.552 686.172 407.406C685.143 406.247 683.77 405.668 682.051 405.668C680.475 405.668 679.238 406.013 678.34 406.703L677.383 407.484L674.492 406.742ZM714.01 405.16V407.32H721.13V409.2H724.41V388.12H721.13V405.16H714.01ZM706.53 391.08C710.05 391.08 712.29 392.28 712.29 394.2C712.29 396.04 710.05 397.28 706.53 397.28C703.05 397.28 700.77 396.04 700.77 394.2C700.77 392.28 703.05 391.08 706.53 391.08ZM706.53 399.52C711.85 399.52 715.37 397.48 715.37 394.2C715.37 390.84 711.85 388.8 706.53 388.8C701.21 388.8 697.69 390.84 697.69 394.2C697.69 397.48 701.21 399.52 706.53 399.52ZM704.69 409.32H707.97V403.8C711.45 403.6 715.01 403.32 718.49 402.84L718.29 400.68C710.61 401.56 701.85 401.6 694.93 401.6L695.33 404.08C698.21 404.08 701.37 404.04 704.69 403.96V409.32ZM703.69 421.12V418H724.41V410.52H700.37V412.88H721.21V415.76H700.45V423.56H725.65V421.12H703.69ZM743.965 421H740.332V396.918L733.047 399.594V396.312L743.398 392.426H743.965V421ZM783.748 388.08H780.468V406.48H783.748V388.08ZM758.308 397.36C758.308 394.24 760.908 392.04 764.388 392.04C767.908 392.04 770.468 394.24 770.468 397.36C770.468 400.44 767.908 402.64 764.388 402.64C760.908 402.64 758.308 400.44 758.308 397.36ZM773.668 397.36C773.668 392.6 769.748 389.36 764.388 389.36C759.028 389.36 755.148 392.6 755.148 397.36C755.148 402.08 759.028 405.28 764.388 405.28C769.748 405.28 773.668 402.08 773.668 397.36ZM763.828 420.88V416.92H783.748V408.24H760.508V410.84H780.508V414.48H760.588V423.48H784.948V420.88H763.828ZM826.146 402.36H808.346V397.08H826.146V402.36ZM829.426 389.52H826.146V394.44H808.346V389.52H805.106V405.04H829.426V389.52ZM833.546 409.36H800.986V412H815.546V424H818.826V412H833.546V409.36ZM842.743 404.08H854.503V401.44H842.743V394.04H856.063V391.32H839.463V415.36H842.223C849.063 415.36 853.423 415.16 858.623 414.24L858.263 411.56C853.383 412.44 849.223 412.68 842.743 412.68V404.08ZM864.103 388.04V401.6H856.703V404.32H864.103V424H867.383V388.04H864.103ZM903.145 394.594L891.367 421H887.578L899.316 395.531H883.926V392.562H903.145V394.594ZM925.963 405.16V407.32H933.083V409.2H936.363V388.12H933.083V405.16H925.963ZM918.483 391.08C922.003 391.08 924.243 392.28 924.243 394.2C924.243 396.04 922.003 397.28 918.483 397.28C915.003 397.28 912.723 396.04 912.723 394.2C912.723 392.28 915.003 391.08 918.483 391.08ZM918.483 399.52C923.803 399.52 927.323 397.48 927.323 394.2C927.323 390.84 923.803 388.8 918.483 388.8C913.163 388.8 909.643 390.84 909.643 394.2C909.643 397.48 913.163 399.52 918.483 399.52ZM916.643 409.32H919.923V403.8C923.403 403.6 926.963 403.32 930.443 402.84L930.243 400.68C922.563 401.56 913.803 401.6 906.883 401.6L907.283 404.08C910.163 404.08 913.323 404.04 916.643 403.96V409.32ZM915.643 421.12V418H936.363V410.52H912.323V412.88H933.163V415.76H912.403V423.56H937.603V421.12H915.643ZM959.219 405.023H961.934C963.639 404.997 964.98 404.548 965.957 403.676C966.934 402.803 967.422 401.625 967.422 400.141C967.422 396.807 965.762 395.141 962.441 395.141C960.879 395.141 959.629 395.59 958.691 396.488C957.767 397.374 957.305 398.552 957.305 400.023H953.691C953.691 397.771 954.512 395.902 956.152 394.418C957.806 392.921 959.902 392.172 962.441 392.172C965.124 392.172 967.227 392.882 968.75 394.301C970.273 395.72 971.035 397.693 971.035 400.219C971.035 401.456 970.632 402.654 969.824 403.812C969.03 404.971 967.943 405.837 966.562 406.41C968.125 406.905 969.329 407.725 970.176 408.871C971.035 410.017 971.465 411.417 971.465 413.07C971.465 415.622 970.632 417.647 968.965 419.145C967.298 420.642 965.13 421.391 962.461 421.391C959.792 421.391 957.617 420.668 955.938 419.223C954.271 417.777 953.438 415.87 953.438 413.5H957.07C957.07 414.997 957.559 416.195 958.535 417.094C959.512 417.992 960.82 418.441 962.461 418.441C964.206 418.441 965.54 417.986 966.465 417.074C967.389 416.163 967.852 414.854 967.852 413.148C967.852 411.495 967.344 410.225 966.328 409.34C965.312 408.454 963.848 407.999 961.934 407.973H959.219V405.023ZM988.301 421H984.668V396.918L977.383 399.594V396.312L987.734 392.426H988.301V421ZM1028.08 388.08H1024.8V406.48H1028.08V388.08ZM1002.64 397.36C1002.64 394.24 1005.24 392.04 1008.72 392.04C1012.24 392.04 1014.8 394.24 1014.8 397.36C1014.8 400.44 1012.24 402.64 1008.72 402.64C1005.24 402.64 1002.64 400.44 1002.64 397.36ZM1018 397.36C1018 392.6 1014.08 389.36 1008.72 389.36C1003.36 389.36 999.483 392.6 999.483 397.36C999.483 402.08 1003.36 405.28 1008.72 405.28C1014.08 405.28 1018 402.08 1018 397.36ZM1008.16 420.88V416.92H1028.08V408.24H1004.84V410.84H1024.84V414.48H1004.92V423.48H1029.28V420.88H1008.16ZM1046.4 391.96V394.68H1053C1052.64 401.88 1050.56 408.52 1045.24 414.04L1047.8 415.88C1054.32 409 1056.12 400.6 1056.12 391.96H1046.4ZM1057.32 391.96V394.68H1062.84C1062.56 402.28 1060.96 410.12 1055.44 416.48L1058.08 418.28C1064.68 410.48 1065.92 400.6 1065.92 391.96H1057.32ZM1078.88 402.88H1073.56V388.08H1070.28V423.96H1073.56V405.6H1078.88V402.88ZM1094.96 394.48H1103.4V391.76H1083.36V394.48H1091.68V399.04C1091.68 405.24 1087.32 412 1082.16 414.44L1084.08 417.08C1088.16 415 1091.68 410.48 1093.32 405.24C1095.04 410.16 1098.56 414.28 1102.72 416.2L1104.56 413.56C1099.28 411.32 1094.96 405.12 1094.96 399.04V394.48ZM1108.24 388.12V423.96H1111.52V388.12H1108.24ZM1134.38 405.023H1137.09C1138.8 404.997 1140.14 404.548 1141.11 403.676C1142.09 402.803 1142.58 401.625 1142.58 400.141C1142.58 396.807 1140.92 395.141 1137.6 395.141C1136.04 395.141 1134.79 395.59 1133.85 396.488C1132.92 397.374 1132.46 398.552 1132.46 400.023H1128.85C1128.85 397.771 1129.67 395.902 1131.31 394.418C1132.96 392.921 1135.06 392.172 1137.6 392.172C1140.28 392.172 1142.38 392.882 1143.91 394.301C1145.43 395.72 1146.19 397.693 1146.19 400.219C1146.19 401.456 1145.79 402.654 1144.98 403.812C1144.19 404.971 1143.1 405.837 1141.72 406.41C1143.28 406.905 1144.49 407.725 1145.33 408.871C1146.19 410.017 1146.62 411.417 1146.62 413.07C1146.62 415.622 1145.79 417.647 1144.12 419.145C1142.45 420.642 1140.29 421.391 1137.62 421.391C1134.95 421.391 1132.77 420.668 1131.09 419.223C1129.43 417.777 1128.59 415.87 1128.59 413.5H1132.23C1132.23 414.997 1132.71 416.195 1133.69 417.094C1134.67 417.992 1135.98 418.441 1137.62 418.441C1139.36 418.441 1140.7 417.986 1141.62 417.074C1142.55 416.163 1143.01 414.854 1143.01 413.148C1143.01 411.495 1142.5 410.225 1141.48 409.34C1140.47 408.454 1139 407.999 1137.09 407.973H1134.38V405.023ZM1152.7 392.72V395.4H1163.46C1162.98 402.84 1159.58 409.32 1151.34 413.92L1153.26 416.28C1163.46 410.52 1166.7 401.96 1166.7 392.72H1152.7ZM1178.62 388.08V402.52H1173.74V389.04H1170.66V422.16H1173.74V405.2H1178.62V423.96H1181.78V388.08H1178.62ZM1207.1 405.16V407.32H1214.22V409.2H1217.5V388.12H1214.22V405.16H1207.1ZM1199.62 391.08C1203.14 391.08 1205.38 392.28 1205.38 394.2C1205.38 396.04 1203.14 397.28 1199.62 397.28C1196.14 397.28 1193.86 396.04 1193.86 394.2C1193.86 392.28 1196.14 391.08 1199.62 391.08ZM1199.62 399.52C1204.94 399.52 1208.46 397.48 1208.46 394.2C1208.46 390.84 1204.94 388.8 1199.62 388.8C1194.3 388.8 1190.78 390.84 1190.78 394.2C1190.78 397.48 1194.3 399.52 1199.62 399.52ZM1197.78 409.32H1201.06V403.8C1204.54 403.6 1208.1 403.32 1211.58 402.84L1211.38 400.68C1203.7 401.56 1194.94 401.6 1188.02 401.6L1188.42 404.08C1191.3 404.08 1194.46 404.04 1197.78 403.96V409.32ZM1196.78 421.12V418H1217.5V410.52H1193.46V412.88H1214.3V415.76H1193.54V423.56H1218.74V421.12H1196.78ZM1226.45 390.88V393.56H1239.65C1238.97 399.88 1233.45 404.96 1225.01 407.6L1226.33 410.2C1236.65 406.96 1243.17 400.16 1243.17 390.88H1226.45ZM1233.69 411.64H1230.41V423.16H1254.33V420.48H1233.69V411.64ZM1252.77 399V388.12H1249.49V414.32H1252.77V401.72H1258.05V399H1252.77ZM1301.09 388.12H1297.81V414.36H1301.09V388.12ZM1293.57 406.64C1288.29 404.88 1284.57 400.52 1284.57 395.68V393.72H1292.69V391.08H1273.01V393.72H1281.21V395.68C1281.21 400.8 1277.57 405.48 1272.13 407.36L1273.85 409.92C1278.09 408.4 1281.41 405.16 1282.93 401.08C1284.57 404.84 1287.85 407.8 1291.97 409.24L1293.57 406.64ZM1281.29 420.48V411.88H1278.01V423.16H1302.17V420.48H1281.29ZM1331.01 400.52H1335.57V410.8H1338.73V388.08H1335.57V397.84H1331.01V388.76H1327.89V409.48H1331.01V400.52ZM1326.45 392.36H1319.01V388.36H1315.77V392.36H1308.25V394.96H1326.49L1326.45 392.36ZM1312.69 402.96C1312.69 400.76 1314.57 399.28 1317.41 399.28C1320.21 399.28 1322.13 400.76 1322.13 402.96C1322.13 405.2 1320.21 406.68 1317.41 406.68C1314.57 406.68 1312.69 405.2 1312.69 402.96ZM1325.05 402.96C1325.05 399.28 1321.93 396.84 1317.41 396.84C1312.89 396.84 1309.73 399.28 1309.73 402.96C1309.73 406.72 1312.89 409.12 1317.41 409.12C1321.93 409.12 1325.05 406.72 1325.05 402.96ZM1326.93 421.4C1321.45 421.4 1318.17 420.04 1318.17 417.68C1318.17 415.28 1321.45 413.92 1326.93 413.92C1332.37 413.92 1335.65 415.28 1335.65 417.68C1335.65 420.04 1332.37 421.4 1326.93 421.4ZM1326.93 411.4C1319.45 411.4 1314.93 413.64 1314.93 417.68C1314.93 421.68 1319.45 423.92 1326.93 423.92C1334.41 423.92 1338.93 421.68 1338.93 417.68C1338.93 413.64 1334.41 411.4 1326.93 411.4ZM1354.2 409.652C1354.2 412.556 1353.82 415.342 1353.05 418.012C1352.29 420.668 1351.13 423.122 1349.55 425.375C1347.99 427.628 1346.35 429.229 1344.63 430.18L1343.87 427.973C1345.87 426.436 1347.48 424.053 1348.69 420.824C1349.92 417.582 1350.54 413.988 1350.57 410.043V409.418C1350.57 406.684 1350.28 404.145 1349.71 401.801C1349.13 399.444 1348.33 397.335 1347.3 395.473C1346.29 393.611 1345.14 392.159 1343.87 391.117L1344.63 388.91C1346.35 389.861 1347.98 391.449 1349.53 393.676C1351.09 395.902 1352.26 398.357 1353.03 401.039C1353.81 403.721 1354.2 406.592 1354.2 409.652ZM480.996 535H462.363V532.402L472.207 521.465C473.665 519.811 474.668 518.47 475.215 517.441C475.775 516.4 476.055 515.326 476.055 514.219C476.055 512.734 475.605 511.517 474.707 510.566C473.809 509.616 472.611 509.141 471.113 509.141C469.316 509.141 467.917 509.655 466.914 510.684C465.924 511.699 465.43 513.118 465.43 514.941H461.816C461.816 512.324 462.656 510.208 464.336 508.594C466.029 506.979 468.288 506.172 471.113 506.172C473.757 506.172 475.846 506.868 477.383 508.262C478.919 509.642 479.688 511.484 479.688 513.789C479.688 516.589 477.904 519.922 474.336 523.789L466.719 532.051H480.996V535ZM485.273 533.105C485.273 532.48 485.456 531.96 485.82 531.543C486.198 531.126 486.758 530.918 487.5 530.918C488.242 530.918 488.802 531.126 489.18 531.543C489.57 531.96 489.766 532.48 489.766 533.105C489.766 533.704 489.57 534.206 489.18 534.609C488.802 535.013 488.242 535.215 487.5 535.215C486.758 535.215 486.198 535.013 485.82 534.609C485.456 534.206 485.273 533.704 485.273 533.105ZM513.008 519.88C508.448 518.16 505.728 514.08 505.728 509.84V509.44H512.128V506.8H505.728V502.48H502.608V506.8H496.128V509.44H502.608V509.84C502.608 514.36 499.968 518.72 495.408 520.6L497.008 523C500.568 521.52 503.048 518.64 504.208 515.12C505.488 518.36 507.968 521 511.448 522.4L513.008 519.88ZM501.288 528.68H522.128V537.96H525.408V526H501.288V528.68ZM522.248 502.12V511.68H517.728V502.72H514.648V523.88H517.728V514.36H522.248V524.12H525.408V502.12H522.248ZM574.327 519.84H569.007C570.007 514.68 570.007 510.88 570.007 507.52V504.4H545.927V507.04H566.807V507.52C566.807 510.88 566.807 514.68 565.687 519.84H541.887V522.52H556.367V538H559.687V522.52H574.327V519.84ZM583.003 508.84H590.523V525.72H583.003V508.84ZM579.923 528.32H593.563V506.24H579.923V528.32ZM606.003 502.08V516.28H601.163V502.88H598.083V536.16H601.163V518.96H606.003V537.92H609.123V502.08H606.003ZM651.442 502.08V538.04H654.722V502.08H651.442ZM635.802 504.84C630.482 504.84 626.682 509.72 626.682 517.36C626.682 525 630.482 529.88 635.802 529.88C641.122 529.88 644.922 525 644.922 517.36C644.922 509.72 641.122 504.84 635.802 504.84ZM635.802 507.8C639.282 507.8 641.762 511.56 641.762 517.36C641.762 523.2 639.282 526.96 635.802 526.96C632.282 526.96 629.802 523.2 629.802 517.36C629.802 511.56 632.282 507.8 635.802 507.8ZM692.679 506.2H680.039V501.88H676.719V506.2H663.839V508.84H692.679V506.2ZM686.599 516.88C686.599 519.08 683.639 520.36 678.399 520.36C673.159 520.36 670.119 519.08 670.119 516.88C670.119 514.68 673.159 513.4 678.399 513.4C683.639 513.4 686.599 514.68 686.599 516.88ZM666.719 516.88C666.719 520.72 671.079 522.84 678.399 522.84C685.639 522.84 689.999 520.72 689.999 516.88C689.999 513.04 685.639 510.88 678.399 510.88C671.079 510.88 666.719 513.04 666.719 516.88ZM694.679 525.36H662.159V528.04H676.719V538H680.039V528.04H694.679V525.36ZM739.398 506.2H726.758V501.88H723.438V506.2H710.558V508.84H739.398V506.2ZM733.318 516.88C733.318 519.08 730.358 520.36 725.118 520.36C719.878 520.36 716.838 519.08 716.838 516.88C716.838 514.68 719.878 513.4 725.118 513.4C730.358 513.4 733.318 514.68 733.318 516.88ZM713.438 516.88C713.438 520.72 717.798 522.84 725.118 522.84C732.358 522.84 736.718 520.72 736.718 516.88C736.718 513.04 732.358 510.88 725.118 510.88C717.798 510.88 713.438 513.04 713.438 516.88ZM741.398 525.36H708.878V528.04H723.438V538H726.758V528.04H741.398V525.36ZM747.795 505.96V508.6H761.275C760.595 517.12 755.795 524 746.155 528.6L747.915 531.28C759.835 525.44 764.595 516.32 764.595 505.96H747.795ZM771.835 502.08V537.96H775.115V502.08H771.835ZM813.233 519.64C807.953 517.84 804.513 513.4 804.513 508.64V507.24H812.433V504.6H793.193V507.24H801.233V508.68C801.233 513.8 797.633 518.44 792.233 520.32L793.953 522.92C798.153 521.36 801.393 518.2 802.913 514.2C804.473 517.88 807.553 520.8 811.553 522.2L813.233 519.64ZM796.873 528.28H816.953V538H820.233V525.64H796.873V528.28ZM825.553 511.52H820.233V502.12H816.953V523.72H820.233V514.24H825.553V511.52ZM855.43 523.32H858.75V502.12H855.43V509.72H847.63V512.4H855.43V523.32ZM850.23 519.08C844.99 517.24 841.51 512.8 841.51 507.68V504.12H838.23V507.8C838.23 513.28 834.67 518.08 829.15 520.04L830.87 522.72C835.19 521.08 838.43 517.84 839.95 513.6C841.51 517.32 844.55 520.16 848.47 521.64L850.23 519.08ZM846.91 535.32C841.51 535.32 838.23 533.76 838.23 531.16C838.23 528.52 841.51 526.96 846.91 526.96C852.31 526.96 855.59 528.52 855.59 531.16C855.59 533.76 852.31 535.32 846.91 535.32ZM846.91 524.4C839.55 524.4 834.95 526.84 834.95 531.16C834.95 535.44 839.55 537.92 846.91 537.92C854.27 537.92 858.87 535.44 858.87 531.16C858.87 526.84 854.27 524.4 846.91 524.4ZM878.707 505.2H875.467V511.64C875.467 518.44 871.107 525.32 865.827 527.84L867.827 530.52C872.027 528.36 875.467 523.88 877.107 518.48C878.827 523.6 882.267 527.84 886.347 529.84L888.307 527.2C882.987 524.8 878.707 518.2 878.707 511.64V505.2ZM892.067 502.08V538.04H895.347V502.08H892.067ZM924.426 508.16H933.346V519.92H924.426V508.16ZM930.546 530.8V522.56H942.106V519.92H936.626V508.16H942.186V505.52H915.586V508.16H921.146V519.92H915.666V522.56H927.226V530.8H912.706V533.48H945.226V530.8H930.546ZM978.943 502.12H975.663V528.32H978.943V502.12ZM953.543 513.4C953.543 509.92 956.183 507.44 959.663 507.44C963.223 507.44 965.863 509.92 965.863 513.4C965.863 516.96 963.223 519.44 959.663 519.44C956.183 519.44 953.543 516.96 953.543 513.4ZM969.063 513.4C969.063 508.24 965.023 504.6 959.663 504.6C954.343 504.6 950.343 508.24 950.343 513.4C950.343 518.6 954.343 522.28 959.663 522.28C965.023 522.28 969.063 518.6 969.063 513.4ZM959.143 534.48V525.64H955.863V537.16H980.023V534.48H959.143ZM1015.1 521.44H993.78V515.76H1013.94V513.16H993.78V507.84H1014.74V505.2H990.46V524.08H1015.1V521.44ZM986.26 530.64V533.32H1018.82V530.64H986.26ZM1045.14 535H1041.5V510.918L1034.22 513.594V510.312L1044.57 506.426H1045.14V535ZM1073.55 522.871C1073.55 527.103 1072.83 530.247 1071.39 532.305C1069.94 534.362 1067.68 535.391 1064.61 535.391C1061.58 535.391 1059.33 534.388 1057.87 532.383C1056.41 530.365 1055.66 527.357 1055.61 523.359V518.535C1055.61 514.355 1056.33 511.25 1057.77 509.219C1059.22 507.188 1061.48 506.172 1064.57 506.172C1067.63 506.172 1069.88 507.155 1071.33 509.121C1072.77 511.074 1073.52 514.095 1073.55 518.184V522.871ZM1069.94 517.93C1069.94 514.87 1069.51 512.643 1068.65 511.25C1067.79 509.844 1066.43 509.141 1064.57 509.141C1062.72 509.141 1061.37 509.837 1060.53 511.23C1059.68 512.624 1059.24 514.766 1059.22 517.656V523.438C1059.22 526.51 1059.66 528.783 1060.55 530.254C1061.45 531.712 1062.8 532.441 1064.61 532.441C1066.39 532.441 1067.71 531.751 1068.57 530.371C1069.45 528.991 1069.9 526.816 1069.94 523.848V517.93ZM1096.02 522.871C1096.02 527.103 1095.29 530.247 1093.85 532.305C1092.4 534.362 1090.14 535.391 1087.07 535.391C1084.04 535.391 1081.79 534.388 1080.33 532.383C1078.87 530.365 1078.12 527.357 1078.07 523.359V518.535C1078.07 514.355 1078.79 511.25 1080.23 509.219C1081.68 507.188 1083.95 506.172 1087.03 506.172C1090.09 506.172 1092.34 507.155 1093.79 509.121C1095.23 511.074 1095.98 514.095 1096.02 518.184V522.871ZM1092.4 517.93C1092.4 514.87 1091.97 512.643 1091.11 511.25C1090.25 509.844 1088.89 509.141 1087.03 509.141C1085.18 509.141 1083.83 509.837 1082.99 511.23C1082.14 512.624 1081.71 514.766 1081.68 517.656V523.438C1081.68 526.51 1082.12 528.783 1083.01 530.254C1083.91 531.712 1085.26 532.441 1087.07 532.441C1088.85 532.441 1090.18 531.751 1091.04 530.371C1091.91 528.991 1092.36 526.816 1092.4 523.848V517.93ZM1121.56 519.36C1116.36 517.52 1112.84 513.04 1112.84 508.36V507.04H1120.72V504.36H1101.56V507.04H1109.56V508.4C1109.56 513.48 1105.84 518.24 1100.52 520.16L1102.24 522.72C1106.44 521.2 1109.72 517.92 1111.28 513.8C1112.84 517.48 1115.92 520.48 1119.92 521.92L1121.56 519.36ZM1109.84 527.44H1126.76V534.84H1109.84V527.44ZM1106.64 537.48H1129.96V524.84H1106.64V537.48ZM1126.64 502.08V511.08H1119.56V513.8H1126.64V523.08H1129.96V502.08H1126.64ZM1150.36 521.04C1155.92 520.2 1161.08 517.44 1163.36 513.56C1165.64 517.44 1170.76 520.2 1176.32 521.04L1177.48 518.4C1171.08 517.52 1165 513.56 1165 509.16H1176.44V506.52H1165V502.08H1161.72V506.52H1150.28V509.16H1161.68C1161.68 513.6 1155.64 517.52 1149.16 518.4L1150.36 521.04ZM1179.6 523.76H1147.16V526.44H1161.72V538H1165V526.44H1179.6V523.76ZM1185.84 505.92V508.64H1199C1198.24 517.12 1193.32 524 1184.16 528.6L1185.96 531.16C1197.56 525.36 1202.24 516.12 1202.24 505.92H1185.84ZM1217.28 516.64H1211.52V502.08H1208.24V537.96H1211.52V519.36H1217.28V516.64ZM1251.8 519.6C1246.6 517.76 1243.08 513.24 1243.08 508.64V507.2H1250.96V504.52H1231.8V507.2H1239.8V508.64C1239.8 513.72 1236.08 518.52 1230.76 520.4L1232.48 523C1236.68 521.44 1239.96 518.16 1241.48 514.04C1243.08 517.76 1246.16 520.72 1250.16 522.16L1251.8 519.6ZM1236.2 528.16H1256.88V538H1260.2V525.52H1236.2V528.16ZM1256.88 502.08V511.44H1249.88V514.12H1256.88V523.56H1260.2V502.08H1256.88ZM1289.23 517.24C1283.55 518.16 1278.87 518.36 1272.51 518.36V513.52H1285.51V503.84H1269.19V506.48H1282.27V511H1269.31V521.04H1272.19C1278.83 521.04 1283.71 520.84 1289.59 519.88L1289.23 517.24ZM1293.63 534.8H1276.87V530.4H1293.63V534.8ZM1293.63 527.84H1276.87V523.6H1273.63V537.48H1296.87V523.6H1293.63V527.84ZM1293.59 502.12V521.8H1296.87V502.12H1293.59Z" fill="#262626"/>
<path d="M130.443 169V119.234H147.875C153.913 119.234 158.493 120.396 161.615 122.721C164.737 125.022 166.298 128.406 166.298 132.872C166.298 135.31 165.671 137.464 164.418 139.332C163.165 141.178 161.422 142.534 159.188 143.399C161.741 144.037 163.746 145.325 165.204 147.262C166.685 149.199 167.426 151.568 167.426 154.371C167.426 159.156 165.899 162.779 162.846 165.24C159.792 167.701 155.44 168.954 149.789 169H130.443ZM140.697 147.33V160.763H149.481C151.897 160.763 153.777 160.193 155.121 159.054C156.488 157.892 157.172 156.297 157.172 154.269C157.172 149.711 154.813 147.398 150.097 147.33H140.697ZM140.697 140.084H148.285C153.458 139.993 156.044 137.931 156.044 133.897C156.044 131.642 155.383 130.024 154.062 129.044C152.763 128.041 150.701 127.54 147.875 127.54H140.697V140.084ZM216.029 145.245C216.029 150.144 215.163 154.439 213.432 158.131C211.7 161.822 209.216 164.671 205.98 166.676C202.768 168.681 199.076 169.684 194.906 169.684C190.782 169.684 187.102 168.692 183.866 166.71C180.631 164.728 178.124 161.902 176.347 158.233C174.569 154.542 173.669 150.304 173.646 145.519V143.058C173.646 138.159 174.524 133.852 176.278 130.138C178.056 126.401 180.551 123.541 183.764 121.559C186.999 119.553 190.691 118.551 194.838 118.551C198.985 118.551 202.665 119.553 205.878 121.559C209.114 123.541 211.609 126.401 213.363 130.138C215.141 133.852 216.029 138.147 216.029 143.023V145.245ZM205.639 142.989C205.639 137.771 204.704 133.806 202.836 131.095C200.967 128.383 198.301 127.027 194.838 127.027C191.397 127.027 188.743 128.372 186.874 131.061C185.006 133.727 184.06 137.646 184.037 142.818V145.245C184.037 150.326 184.971 154.269 186.84 157.071C188.708 159.874 191.397 161.275 194.906 161.275C198.347 161.275 200.99 159.931 202.836 157.242C204.682 154.531 205.616 150.589 205.639 145.416V142.989ZM241.903 150.782H233.734V169H223.48V119.234H241.972C247.851 119.234 252.385 120.545 255.575 123.165C258.765 125.785 260.36 129.488 260.36 134.273C260.36 137.669 259.62 140.506 258.139 142.784C256.68 145.04 254.459 146.84 251.474 148.185L262.24 168.521V169H251.234L241.903 150.782ZM233.734 142.477H242.006C244.581 142.477 246.575 141.827 247.987 140.528C249.4 139.207 250.106 137.395 250.106 135.094C250.106 132.747 249.434 130.901 248.09 129.557C246.768 128.212 244.729 127.54 241.972 127.54H233.734V142.477ZM296.283 158.746H278.305L274.887 169H263.983L282.509 119.234H292.011L310.639 169H299.735L296.283 158.746ZM281.073 150.44H293.515L287.26 131.812L281.073 150.44ZM328.686 119.234L341.469 155.328L354.184 119.234H367.65V169H357.362V155.396L358.388 131.915L344.955 169H337.914L324.516 131.949L325.541 155.396V169H315.287V119.234H328.686ZM396.669 119.234H406.923V153.688C406.923 156.855 406.216 159.658 404.804 162.096C403.414 164.511 401.443 166.38 398.891 167.701C396.339 169.023 393.456 169.684 390.243 169.684C384.979 169.684 380.878 168.351 377.938 165.685C374.999 162.996 373.529 159.202 373.529 154.303H383.852C383.852 156.741 384.364 158.541 385.39 159.703C386.415 160.865 388.033 161.446 390.243 161.446C392.203 161.446 393.764 160.774 394.926 159.43C396.088 158.085 396.669 156.171 396.669 153.688V119.234ZM453.373 119.234V152.013C453.373 157.459 451.664 161.765 448.246 164.933C444.851 168.1 440.202 169.684 434.301 169.684C428.49 169.684 423.876 168.146 420.458 165.069C417.04 161.993 415.297 157.766 415.229 152.389V119.234H425.482V152.081C425.482 155.34 426.257 157.721 427.807 159.225C429.379 160.706 431.544 161.446 434.301 161.446C440.066 161.446 442.994 158.416 443.085 152.354V119.234H453.373ZM472.035 160.763H493.808V169H461.781V119.234H472.035V160.763ZM258.48 227.245C258.48 232.144 257.615 236.439 255.883 240.131C254.151 243.822 251.667 246.671 248.432 248.676C245.219 250.681 241.527 251.684 237.357 251.684C233.233 251.684 229.553 250.692 226.317 248.71C223.082 246.728 220.575 243.902 218.798 240.233C217.021 236.542 216.12 232.304 216.098 227.519V225.058C216.098 220.159 216.975 215.852 218.729 212.138C220.507 208.401 223.002 205.541 226.215 203.559C229.451 201.553 233.142 200.551 237.289 200.551C241.436 200.551 245.116 201.553 248.329 203.559C251.565 205.541 254.06 208.401 255.814 212.138C257.592 215.852 258.48 220.147 258.48 225.023V227.245ZM248.09 224.989C248.09 219.771 247.156 215.806 245.287 213.095C243.419 210.383 240.753 209.027 237.289 209.027C233.848 209.027 231.194 210.372 229.325 213.061C227.457 215.727 226.511 219.646 226.488 224.818V227.245C226.488 232.326 227.423 236.269 229.291 239.071C231.16 241.874 233.848 243.275 237.357 243.275C240.798 243.275 243.441 241.931 245.287 239.242C247.133 236.531 248.067 232.589 248.09 227.416V224.989ZM276.186 233.466V251H265.932V201.234H285.346C289.083 201.234 292.364 201.918 295.189 203.285C298.038 204.652 300.225 206.601 301.752 209.13C303.279 211.636 304.042 214.496 304.042 217.709C304.042 222.585 302.367 226.436 299.018 229.262C295.691 232.064 291.076 233.466 285.175 233.466H276.186ZM276.186 225.16H285.346C288.057 225.16 290.119 224.522 291.532 223.246C292.968 221.97 293.686 220.147 293.686 217.777C293.686 215.339 292.968 213.368 291.532 211.864C290.097 210.36 288.114 209.586 285.585 209.54H276.186V225.16ZM341.059 229.433H321.371V242.763H344.477V251H311.117V201.234H344.408V209.54H321.371V221.4H341.059V229.433ZM390.961 251H380.707L360.746 218.256V251H350.492V201.234H360.746L380.741 234.047V201.234H390.961V251ZM447.289 229.433H427.602V242.763H450.707V251H417.348V201.234H450.639V209.54H427.602V221.4H447.289V229.433ZM475.111 238.661L486.391 201.234H497.807L480.478 251H469.779L452.519 201.234H463.9L475.111 238.661ZM532.465 229.433H512.777V242.763H535.883V251H502.523V201.234H535.814V209.54H512.777V221.4H532.465V229.433ZM582.367 251H572.113L552.152 218.256V251H541.898V201.234H552.152L572.147 234.047V201.234H582.367V251ZM627.758 209.54H612.514V251H602.26V209.54H587.221V201.234H627.758V209.54ZM643.036 235.722H634.833L633.671 201.234H644.198L643.036 235.722ZM638.935 241.122C640.598 241.122 641.931 241.612 642.934 242.592C643.959 243.572 644.472 244.825 644.472 246.352C644.472 247.855 643.959 249.097 642.934 250.077C641.931 251.057 640.598 251.547 638.935 251.547C637.294 251.547 635.961 251.057 634.936 250.077C633.933 249.097 633.432 247.855 633.432 246.352C633.432 244.848 633.933 243.606 634.936 242.626C635.961 241.623 637.294 241.122 638.935 241.122ZM662.108 235.722H653.905L652.743 201.234H663.271L662.108 235.722ZM658.007 241.122C659.67 241.122 661.003 241.612 662.006 242.592C663.031 243.572 663.544 244.825 663.544 246.352C663.544 247.855 663.031 249.097 662.006 250.077C661.003 251.057 659.67 251.547 658.007 251.547C656.366 251.547 655.033 251.057 654.008 250.077C653.005 249.097 652.504 247.855 652.504 246.352C652.504 244.848 653.005 243.606 654.008 242.626C655.033 241.623 656.366 241.122 658.007 241.122Z" fill="#262626"/>
<defs>
<linearGradient id="paint0_linear" x1="720" y1="0" x2="720" y2="700" gradientUnits="userSpaceOnUse">
<stop stop-color="#FFD0EC"/>
<stop offset="1" stop-color="white" stop-opacity="0"/>
</linearGradient>
</defs>
</svg>
