<svg width="123" height="30" viewBox="0 0 123 30" fill="none" xmlns="http://www.w3.org/2000/svg">
<path d="M108 1.61804L110.892 10.5193L111.004 10.8647H111.368H120.727L113.155 16.366L112.861 16.5795L112.974 16.925L115.866 25.8262L108.294 20.325L108 20.1115L107.706 20.325L100.134 25.8262L103.026 16.925L103.139 16.5795L102.845 16.366L95.273 10.8647H104.632H104.996L105.108 10.5193L108 1.61804Z" fill="#FFE600" stroke="#FFE600"/>
<path d="M77 1.61804L79.8922 10.5193L80.0044 10.8647H80.3677H89.727L82.1552 16.366L81.8613 16.5795L81.9735 16.925L84.8657 25.8262L77.2939 20.325L77 20.1115L76.7061 20.325L69.1343 25.8262L72.0265 16.925L72.1387 16.5795L71.8448 16.366L64.273 10.8647H73.6323H73.9956L74.1078 10.5193L77 1.61804Z" fill="#FFE600" stroke="#FFE600"/>
<path d="M46 1.61804L48.8922 10.5193L49.0044 10.8647H49.3677H58.727L51.1552 16.366L50.8613 16.5795L50.9735 16.925L53.8657 25.8262L46.2939 20.325L46 20.1115L45.7061 20.325L38.1343 25.8262L41.0265 16.925L41.1387 16.5795L40.8448 16.366L33.273 10.8647H42.6323H42.9956L43.1078 10.5193L46 1.61804Z" fill="#FFE600" stroke="#FFE600"/>
<path d="M15 1.61804L17.8922 10.5193L18.0044 10.8647H18.3677H27.727L20.1552 16.366L19.8613 16.5795L19.9735 16.925L22.8657 25.8262L15.2939 20.325L15 20.1115L14.7061 20.325L7.13428 25.8262L10.0265 16.925L10.1387 16.5795L9.84482 16.366L2.27299 10.8647H11.6323H11.9956L12.1078 10.5193L15 1.61804Z" fill="#FFE600" stroke="#FFE600"/>
</svg>
