<svg width="171" height="172" viewBox="0 0 171 172" fill="none" xmlns="http://www.w3.org/2000/svg">
<rect width="1440" height="1900" transform="translate(-480 -997)" fill="white"/>
<circle cx="85" cy="86" r="85" fill="#BB5353"/>
<path d="M45.29 93.07V96.31H70.31V93.07H45.29ZM47.93 73.75V88.48H67.58V73.75H63.68V78.22H51.86V73.75H47.93ZM51.86 81.31H63.68V85.33H51.86V81.31ZM79.9977 91.78H76.0377V99.76H95.4777V96.61H79.9977V91.78ZM87.3777 87.25V85.15H95.3877V82.15H79.9077V80.23H94.8477V72.55H75.9477V75.55H90.9477V77.44H76.0077V85.15H83.4177V87.25H72.8877V90.4H97.9077V87.25H87.3777ZM103.005 89.08C107.805 88.21 111.255 85.78 112.995 82.51C114.735 85.72 118.245 88.09 123.105 88.93L124.605 85.81C118.365 84.88 115.095 81.22 115.065 77.41H123.375V74.29H102.555V77.41H110.865C110.835 81.22 107.565 84.97 101.475 85.93L103.005 89.08ZM100.485 93.07V96.28H125.505V93.07H100.485Z" fill="#040404"/>
<line x1="87.5" y1="170" x2="87.5" y2="251" stroke="#828282" stroke-dasharray="10 10"/>
</svg>
