<svg width="170" height="171" viewBox="0 0 170 171" fill="none" xmlns="http://www.w3.org/2000/svg">
<rect width="1440" height="1900" transform="translate(-480 -1247)" fill="white"/>
<circle cx="85" cy="86" r="85" fill="#A4A9B8"/>
<path d="M81.21 71.98H77.25V85.9H81.21V71.98ZM75.24 82.48C70.77 81.16 68.79 77.95 68.79 74.68V72.61H64.77V74.68C64.77 78.04 62.76 81.52 58.17 82.93L60.09 86.02C63.33 85.03 65.58 82.93 66.84 80.32C68.07 82.72 70.2 84.64 73.35 85.57L75.24 82.48ZM66.78 96.31V94.6H81.24V87.13H62.82V90.16H77.31V91.78H62.85V99.37H81.93V96.31H66.78ZM96.2677 89.98H90.8377V83.86H96.2677V89.98ZM105.118 71.92V81.64H100.168V74.11H96.2677V80.77H90.8377V74.11H86.9077V93.13H100.168V84.82H105.118V99.64H109.078V71.92H105.118Z" fill="black"/>
<line x1="87.5" y1="-80" x2="87.5" y2="1" stroke="#828282" stroke-dasharray="10 10"/>
</svg>
