<svg width="138" height="30" viewBox="0 0 138 30" fill="none" xmlns="http://www.w3.org/2000/svg">
<rect width="1063" height="526" transform="translate(-85 -52)" fill="white"/>
<path d="M138.5 1.66858L141.278 10.5146L141.388 10.8647H141.755H150.793L143.467 16.3708L143.185 16.5832L143.29 16.9203L146.08 25.8009L138.8 20.3298L138.5 20.104L138.2 20.3298L130.92 25.8009L133.71 16.9203L133.815 16.5832L133.533 16.3708L126.207 10.8647H135.245H135.612L135.722 10.5146L138.5 1.66858Z" fill="#FFE600" stroke="#FFE600"/>
<path d="M108 1.61804L110.892 10.5193L111.004 10.8647H111.368H120.727L113.155 16.366L112.861 16.5795L112.974 16.925L115.866 25.8262L108.294 20.325L108 20.1115L107.706 20.325L100.134 25.8262L103.026 16.925L103.139 16.5795L102.845 16.366L95.273 10.8647H104.632H104.996L105.108 10.5193L108 1.61804Z" fill="#FFE600" stroke="#FFE600"/>
<path d="M77.5 1.5709L80.506 10.5239L80.6204 10.8647H80.98H90.6609L82.8431 16.3615L82.538 16.576L82.6567 16.9297L85.6516 25.8497L77.7876 20.3205L77.5 20.1183L77.2124 20.3205L69.3484 25.8497L72.3433 16.9297L72.462 16.576L72.1569 16.3615L64.3391 10.8647H74.02H74.3796L74.494 10.5239L77.5 1.5709Z" fill="#FFE600" stroke="#FFE600"/>
<path d="M46 1.61804L48.8922 10.5193L49.0044 10.8647H49.3677H58.727L51.1552 16.366L50.8613 16.5795L50.9735 16.925L53.8657 25.8262L46.2939 20.325L46 20.1115L45.7061 20.325L38.1343 25.8262L41.0265 16.925L41.1387 16.5795L40.8448 16.366L33.273 10.8647H42.6323H42.9956L43.1078 10.5193L46 1.61804Z" fill="#FFE600" stroke="#FFE600"/>
<path d="M15 1.61804L17.8922 10.5193L18.0044 10.8647H18.3677H27.727L20.1552 16.366L19.8613 16.5795L19.9735 16.925L22.8657 25.8262L15.2939 20.325L15 20.1115L14.7061 20.325L7.13428 25.8262L10.0265 16.925L10.1387 16.5795L9.84482 16.366L2.27299 10.8647H11.6323H11.9956L12.1078 10.5193L15 1.61804Z" fill="#FFE600" stroke="#FFE600"/>
</svg>
